<svg width="20" height="20" viewBox="0 0 20 20" fill="none" xmlns="http://www.w3.org/2000/svg">
<g clip-path="url(#clip0_45_34)">
<path d="M14.1667 11.6667C14.1667 11.8877 14.0789 12.0996 13.9226 12.2559C13.7663 12.4122 13.5543 12.5 13.3333 12.5H6.66666C6.44564 12.5 6.23368 12.4122 6.0774 12.2559C5.92112 12.0996 5.83332 11.8877 5.83332 11.6667C5.83332 11.4457 5.92112 11.2337 6.0774 11.0774C6.23368 10.9211 6.44564 10.8333 6.66666 10.8333H13.3333C13.5543 10.8333 13.7663 10.9211 13.9226 11.0774C14.0789 11.2337 14.1667 11.4457 14.1667 11.6667ZM10.8333 14.1667H6.66666C6.44564 14.1667 6.23368 14.2545 6.0774 14.4107C5.92112 14.567 5.83332 14.779 5.83332 15C5.83332 15.221 5.92112 15.433 6.0774 15.5893C6.23368 15.7455 6.44564 15.8333 6.66666 15.8333H10.8333C11.0543 15.8333 11.2663 15.7455 11.4226 15.5893C11.5789 15.433 11.6667 15.221 11.6667 15C11.6667 14.779 11.5789 14.567 11.4226 14.4107C11.2663 14.2545 11.0543 14.1667 10.8333 14.1667ZM18.3333 8.7375V15.8333C18.332 16.938 17.8926 17.997 17.1115 18.7782C16.3304 19.5593 15.2713 19.9987 14.1667 20H5.83332C4.72866 19.9987 3.66962 19.5593 2.88851 18.7782C2.10739 17.997 1.66798 16.938 1.66666 15.8333V4.16667C1.66798 3.06201 2.10739 2.00297 2.88851 1.22185C3.66962 0.440739 4.72866 0.00132716 5.83332 3.94844e-06H9.59583C10.3622 -0.00196849 11.1213 0.147994 11.8293 0.44122C12.5374 0.734446 13.1803 1.16512 13.7208 1.70834L16.6242 4.61334C17.1677 5.15354 17.5986 5.79622 17.892 6.50415C18.1854 7.21208 18.3354 7.97119 18.3333 8.7375ZM12.5425 2.88667C12.2802 2.63264 11.9858 2.41411 11.6667 2.23667V5.83334C11.6667 6.05435 11.7545 6.26631 11.9107 6.42259C12.067 6.57887 12.279 6.66667 12.5 6.66667H16.0967C15.9191 6.34766 15.7003 6.05346 15.4458 5.79167L12.5425 2.88667ZM16.6667 8.7375C16.6667 8.6 16.64 8.46834 16.6275 8.33334H12.5C11.837 8.33334 11.2011 8.06995 10.7322 7.6011C10.2634 7.13226 9.99999 6.49638 9.99999 5.83334V1.70584C9.86499 1.69334 9.73249 1.66667 9.59583 1.66667H5.83332C5.17028 1.66667 4.5344 1.93006 4.06556 2.3989C3.59672 2.86774 3.33332 3.50363 3.33332 4.16667V15.8333C3.33332 16.4964 3.59672 17.1323 4.06556 17.6011C4.5344 18.0699 5.17028 18.3333 5.83332 18.3333H14.1667C14.8297 18.3333 15.4656 18.0699 15.9344 17.6011C16.4033 17.1323 16.6667 16.4964 16.6667 15.8333V8.7375Z" fill="#525252"/>
</g>
<defs>
<clipPath id="clip0_45_34">
<rect width="20" height="20" fill="white"/>
</clipPath>
</defs>
</svg>
